<svg id="Layer_1" data-name="Layer 1" xmlns="http://www.w3.org/2000/svg" viewBox="0 0 93 93"><defs><style>.cls-1{fill:#603;}.cls-2,.cls-3{fill:#fff;}.cls-2{fill-rule:evenodd;}</style></defs><circle class="cls-1" cx="46.5" cy="46.5" r="45.89"/><polygon class="cls-2" points="30 12 62 12 62 16 33 16 33 77 62 77 62 81 30 81 30 12 30 12"/><rect class="cls-3" x="36" y="19" width="26" height="26"/><rect class="cls-3" x="36" y="48" width="26" height="26"/><path class="cls-1" d="M49.35,22c5,0,6.42,2.08,7.19,2.08.21,0,.37-.27.64-.27s.32.43.38,2.17c0,.77.08,1.39.1,1.79s0,.54-.26.54-.51-.7-.62-.89c-1.65-2.89-3.55-4.64-7-4.64-5.21,0-7.72,3.49-7.72,8.52,0,4.7,2.67,9.4,7.8,9.4,4.19,0,6.82-2.7,7.22-4a.44.44,0,0,1,.37-.35c.13,0,.24.16.24.29l-.61,2.7c0,.11-1.93,2.14-7.94,2.14a9,9,0,0,1-9.4-9.38C39.74,26.53,43.72,22,49.35,22Z"/><path class="cls-1" d="M57.52,67.8c0,2,2,1.19,2,2,0,.25-.33.25-.6.25-.47,0-1.33-.1-2.32-.1-.77,0-1.56.1-2.18.1-.22,0-.27-.12-.27-.22,0-.75,1.59-.2,1.54-2l-.25-9.69c0-.62-.13-1-.27-1s-.4.22-.65.74L49.37,68.44c-.1.23-.52,1.27-.77,1.27s-.42-.54-.49-.72L42.84,57.84c-.1-.2-.2-.27-.3-.27s-.17.12-.17.37l-.29,8.78C42,70,44.3,69,44.3,69.83c0,.25-.27.27-.62.27s-1.43-.1-2.17-.1c-1.29,0-1.71.1-2.15.1-.18,0-.25-.12-.25-.29,0-.84,1.58.17,1.75-2.43.3-4.08.6-6.72.6-9.36,0-5.86-2.35-4.48-2.35-5.32,0-.22.19-.27.42-.27.44,0,.89.1,1.36.1s.89-.1,1.33-.1.4.42.52.69L48.62,65.8c.25.54.37.77.55.77s.37-.55.77-1.36l5.87-11.94c.16-.27.35-.84.65-.84s1,.1,1.16.1c.57,0,.79-.1,1.19-.1a.27.27,0,0,1,.24.3c0,.76-1.95-.23-1.87,2.69Z"/></svg>